<svg width="222" height="30" viewBox="0 0 222 30" fill="none" xmlns="http://www.w3.org/2000/svg">
<path d="M16.56 3.47998C16.56 1.07998 14.28 0.47998 12.48 0.47998V0.83998C13.56 0.83998 14.4 1.19998 14.4 2.03998C14.4 2.51998 14.04 3.23998 12.96 3.23998C12.12 3.23998 10.32 2.75998 9 2.27998C7.44 1.67998 6 1.19998 4.8 1.19998C2.4 1.19998 0.72 2.99998 0.72 5.03998C0.72 6.83998 2.04 7.43998 2.52 7.67998L2.64 7.43998C2.4 7.19998 2.04 6.95998 2.04 6.23998C2.04 5.75998 2.52 4.91998 3.72 4.91998C4.8 4.91998 6.24 5.39998 8.16 5.99998C9.84 6.47998 11.64 6.83998 12.6 6.95998V10.68L10.8 12.24V12.36L12.6 13.92V19.08C11.64 19.68 10.56 19.8 9.6 19.8C7.8 19.8 6.24 19.32 4.92 17.88L9.84 15.48V7.19998L3.84 9.83998C4.32 8.27998 5.64 7.19998 6.96 6.47998L6.84 6.11998C3.24 7.07998 0 10.44 0 14.52C0 19.32 3.96 22.92 8.4 22.92C13.2 22.92 16.32 19.08 16.32 15.12H16.08C15.36 16.68 14.28 18.12 12.96 18.84V13.92L14.88 12.36V12.24L12.96 10.68V6.95998C14.76 6.95998 16.56 5.75998 16.56 3.47998ZM6.12 16.68L4.68 17.4C3.84 16.32 3.36 14.88 3.36 12.84C3.36 12 3.36 11.04 3.6 10.32L6.12 9.23998V16.68V16.68ZM18.84 19.44L17.28 20.64L17.52 20.88L18.24 20.28L20.88 22.68L24.48 20.28L24.36 20.04L23.4 20.64L22.2 19.44V11.28L23.16 10.56L25.2 12.24V19.56C25.2 24.12 24.24 24.84 22.2 25.56V25.92C25.56 26.04 28.68 24.96 28.68 19.08V11.16L29.76 10.32L29.52 10.08L28.56 10.8L25.56 8.27998L22.2 10.8V0.95998H21.96L17.76 3.83998V4.07998C18.24 4.31998 18.96 4.55998 18.96 5.87998L18.84 19.44V19.44ZM40.8 18.12L37.8 20.4L34.8 18V16.56L40.44 12.72V12.6L37.56 8.27998L31.32 11.64V19.56L30.12 20.52L30.36 20.76L31.44 19.92L35.52 22.92L40.92 18.6L40.8 18.12V18.12ZM34.8 16.08V10.2L35.04 10.08L37.68 14.28L34.8 16.08ZM63.72 2.39998C63.72 2.03998 63.6 1.67998 63.48 1.31998H63.24C62.88 2.27998 62.4 2.75998 61.2 2.75998C60.12 2.75998 59.4 2.15998 58.92 1.67998L55.44 5.63998L55.68 5.87998L56.88 4.79998C57.6 5.39998 58.2 5.87998 59.88 5.99998V15.96L52.8 3.83998C52.2 2.87998 51.36 1.55998 49.68 1.55998C47.76 1.55998 46.08 3.23998 46.32 5.87998H46.68C46.8 5.15998 47.16 4.31998 48 4.31998C48.6 4.31998 49.2 4.91998 49.56 5.51998V9.47998C47.4 9.47998 45.96 10.44 45.96 12.24C45.96 13.2 46.44 14.64 47.88 15V14.76C47.64 14.52 47.52 14.28 47.52 13.92C47.52 13.32 48 12.84 48.84 12.84H49.44V17.88C46.92 17.88 44.88 19.32 44.88 21.72C44.88 24 46.8 25.08 48.96 24.96V24.72C47.64 24.6 47.04 24 47.04 23.16C47.04 22.08 47.76 21.6 48.72 21.6C49.68 21.6 50.52 22.2 51.12 22.92L54.6 19.08L54.36 18.84L53.52 19.8C52.2 18.6 51.48 18.24 49.92 18V5.99998L59.52 22.8H60.24V5.99998C62.04 5.87998 63.72 4.43998 63.72 2.39998V2.39998ZM72.48 18.12L69.48 20.4L66.48 18V16.56L72.12 12.72V12.6L69.24 8.27998L63 11.64V19.56L61.8 20.52L62.04 20.76L63.12 19.92L67.2 22.92L72.6 18.6L72.48 18.12V18.12ZM66.48 16.08V10.2L66.72 10.08L69.36 14.28L66.48 16.08V16.08ZM92.04 9.59998L91.2 10.2L88.92 8.27998L86.28 10.68L87.36 11.76V20.76L84.48 18.96V11.52L85.44 10.92L82.68 8.27998L80.04 10.68L81.12 11.76V20.4L80.76 20.64L78.24 18.84V11.64C78.24 9.95998 77.4 9.47998 76.44 8.87998C75.6 8.27998 75.12 7.91998 75.12 7.07998C75.12 6.35998 75.84 5.99998 76.2 5.75998V5.51998C75.24 5.51998 72.72 6.47998 72.72 8.75998C72.72 9.95998 73.32 10.44 73.92 11.04C74.52 11.64 75.12 12.12 75.12 13.2V20.16L73.8 21.12L74.04 21.36L75.24 20.4L78 22.8L81 20.76L84.36 22.8L90.72 19.08V11.04L92.28 9.83998L92.04 9.59998V9.59998ZM114.36 2.99998L113.16 4.07998L110.52 1.67998L106.56 4.55998V1.91998H106.2L106.32 21.36C105.96 21.36 104.88 21.12 104.04 20.88L103.8 4.67998C103.8 3.47998 102.96 1.79998 100.8 1.79998C98.64 1.79998 97.2 3.47998 97.2 5.15998H97.56C97.68 4.43998 98.04 3.83998 98.76 3.83998C99.48 3.83998 100.08 4.31998 100.08 5.87998V10.56C97.92 10.68 96.6 11.88 96.6 13.44C96.6 14.4 97.08 15.84 98.52 15.84V15.6C98.04 15.36 97.92 15 97.92 14.76C97.92 14.04 98.52 13.8 99.48 13.8H99.96V21.24C98.16 21.84 97.44 23.16 97.44 24.6C97.44 26.64 99 28.08 101.4 28.08C103.08 28.08 104.52 27.84 105.96 27.48C107.16 27.24 108.72 26.88 109.44 26.88C110.4 26.88 110.76 27.36 110.76 27.96C110.76 28.8 110.4 29.16 109.92 29.28V29.52C111.84 29.16 113.04 27.96 113.04 26.16C113.04 24.36 111.24 23.28 109.32 23.28C108.36 23.28 106.32 23.64 104.88 23.88C103.2 24.24 101.52 24.48 101.04 24.48C100.2 24.48 99.24 24.12 99.24 22.92C99.24 21.96 100.08 21.12 102.12 21.12C103.2 21.12 104.52 21.24 105.84 21.6C107.28 21.96 108.6 22.32 109.8 22.32C111.6 22.32 113.16 21.72 113.16 19.2V4.43998L114.6 3.23998L114.36 2.99998V2.99998ZM109.44 10.32C109.08 10.68 108.6 11.04 108 11.04C107.4 11.04 106.8 10.68 106.56 10.32V5.03998L107.76 4.19998L109.44 5.75998V10.32ZM109.44 13.92C109.2 13.68 108.6 13.32 108 13.32C107.4 13.32 106.8 13.68 106.56 13.92V10.8C106.8 11.04 107.4 11.4 108 11.4C108.6 11.4 109.2 11.04 109.44 10.8V13.92ZM109.44 19.56C109.44 20.52 108.84 21.48 107.52 21.48H106.56V14.4C106.8 14.16 107.4 13.8 108 13.8C108.6 13.8 109.08 14.16 109.44 14.4V19.56V19.56ZM125.88 11.04L122.04 8.27998L116.16 11.64V19.44L114.96 20.4L115.08 20.64L116.04 19.92L119.88 22.8L125.88 19.2V11.04V11.04ZM119.4 18.6V9.95998L122.4 12.12V20.64L119.4 18.6V18.6ZM137.28 8.51998H137.04C136.68 8.75998 136.32 8.99998 135.96 8.99998C135.48 8.99998 134.88 8.75998 134.64 8.39998H134.4L132.36 10.68L130.32 8.39998L126.72 10.8L126.84 11.04L127.8 10.44L129 11.76V19.32L127.44 20.52L127.68 20.76L128.4 20.16L131.28 22.56L135 20.04L134.88 19.8L133.8 20.4L132.36 19.2V10.8C132.96 11.4 133.68 12 134.52 12C136.2 12.12 137.16 10.44 137.28 8.51998V8.51998ZM151.68 20.04L147.6 22.8L142.08 14.4L146.04 8.27998H146.28C146.76 8.75998 147.48 9.23998 148.32 9.23998C149.16 9.23998 149.76 8.75998 150.12 8.27998H150.36C150.24 10.68 148.56 12.12 147.36 12.12C146.16 12.12 145.56 11.52 144.84 11.16L144.48 11.76L150.48 20.64L151.68 19.92V20.04V20.04ZM138.48 19.44L136.92 20.64L137.16 20.88L137.88 20.28L140.52 22.68L144.12 20.28L143.88 20.04L142.92 20.64L141.72 19.44V0.95998H141.6L137.28 3.83998V4.07998C137.76 4.31998 138.48 4.43998 138.48 5.87998V19.44V19.44ZM171.6 3.47998C171.6 1.07998 169.32 0.47998 167.52 0.47998V0.83998C168.6 0.83998 169.44 1.19998 169.44 2.03998C169.44 2.51998 169.08 3.23998 168 3.23998C167.16 3.23998 165.36 2.75998 164.04 2.27998C162.48 1.79998 161.04 1.31998 159.84 1.31998C157.44 1.31998 155.76 3.11998 155.76 5.15998C155.76 6.95998 157.08 7.55998 157.56 7.79998L157.68 7.55998C157.32 7.31998 156.96 7.07998 156.96 6.35998C156.96 5.87998 157.44 5.03998 158.64 5.03998C159.72 5.03998 161.16 5.51998 163.08 6.11998C164.76 6.59998 166.56 6.95998 167.52 7.07998V10.8L165.72 12.36V12.48L167.52 14.04V19.2C166.56 19.8 165.48 19.92 164.52 19.92C162.72 19.92 161.16 19.44 159.84 18L164.76 15.6V7.19998L158.76 9.83998C159.36 8.27998 160.68 7.19998 161.88 6.35998L161.76 6.11998C158.16 7.07998 154.92 10.32 154.92 14.4C154.92 19.2 158.88 22.8 163.32 22.8C168.12 22.8 171.24 18.96 171.24 15H171C170.28 16.56 169.2 18 167.88 18.72V13.8L169.8 12.24V12.12L168 10.56V6.95998C169.8 6.95998 171.6 5.75998 171.6 3.47998V3.47998ZM161.16 16.68L159.72 17.4C158.88 16.32 158.4 14.88 158.4 12.84C158.4 12 158.52 11.04 158.76 10.32L161.28 9.23998L161.16 16.68V16.68ZM175.8 2.27998H175.68L173.28 4.31998V4.43998L175.32 6.71998H175.56L177.96 4.67998V4.55998L175.8 2.27998V2.27998ZM179.4 20.04L178.44 20.64L177.24 19.44V11.16L178.44 10.32L178.2 10.08L177.36 10.8L175.2 8.27998L171.72 10.68L171.96 11.04L172.8 10.44L173.88 11.76V19.56L172.32 20.76L172.44 21L173.28 20.4L175.92 22.8L179.52 20.4L179.4 20.04V20.04ZM199.44 19.92L198.6 20.52L197.28 19.32V11.16L198.48 10.2L198.24 9.95998L197.28 10.8L194.52 8.27998L190.92 10.8L188.16 8.27998L184.8 10.8L182.64 8.27998L179.16 10.68L179.28 11.04L180.12 10.44L181.32 11.76V19.56L180.36 20.52L183.12 22.8L185.76 20.4L184.68 19.32V11.16L185.76 10.44L187.56 12.12V19.32L186.6 20.28L189.36 22.56L192 20.16L190.92 19.08V11.16L191.88 10.56L193.8 12.24V19.44L192.96 20.28L195.72 22.8L199.44 20.28V19.92V19.92ZM209.88 18.12L206.88 20.4L203.88 18V16.56L209.52 12.72V12.6L206.64 8.27998L200.4 11.64V19.8L204.6 22.8L210 18.48L209.88 18.12V18.12ZM203.88 16.08V10.2L204.12 10.08L206.76 14.28L203.88 16.08V16.08ZM220.8 15L218.52 13.2C220.08 11.88 220.68 10.08 220.68 8.87998V8.15998H220.44C220.2 8.75998 219.72 9.35998 218.76 9.35998C217.8 9.35998 217.2 8.87998 216.6 8.15998L211.2 11.16V15.48L213.24 17.04C211.2 18.84 210.84 20.04 210.84 21C210.84 22.2 211.44 23.04 212.4 23.4L212.52 23.16C212.28 22.92 212.04 22.8 212.04 22.2C212.04 21.84 212.52 21.24 213.48 21.24C214.68 21.24 215.4 22.08 215.76 22.44L220.92 19.32V15H220.8V15ZM219.48 11.4C218.64 12.84 216.84 14.28 215.76 15L214.44 13.92V9.71998C214.92 10.92 216.24 11.88 217.56 11.88C218.4 11.88 218.88 11.76 219.48 11.4V11.4ZM217.44 21C216.84 19.68 215.4 18.72 213.96 18.72C213.6 18.72 212.64 18.72 211.68 19.32C212.28 18.36 213.84 16.68 215.88 15.48L217.32 16.68L217.44 21V21Z" fill="black"/>
</svg>
