<svg xmlns="http://www.w3.org/2000/svg" xmlns:xlink="http://www.w3.org/1999/xlink" width="30px" height="28px" viewBox="0 0 30 28" version="1.1">
    <!-- Generator: Sketch 64 (93537) - https://sketch.com -->
    <title>arrow_black</title>
    <desc>Created with Sketch.</desc>
    <g id="fuelbankfoundation_home" stroke="none" stroke-width="1" fill="none" fill-rule="evenodd">
        <g transform="translate(-359.000000, -645.000000)" fill="#000000" id="Group-2">
            <g transform="translate(200.000000, 634.000000)">
                <g id="arrow_black" transform="translate(159.000000, 11.000000)">
                    <path d="M13.8118574,0.000816670856 C6.62314027,-0.067523862 1.51880943,4.1601629 0.0271005562,10.0940064 C5.44249865,10.1187504 10.0884766,10.1800212 12.5640535,10.2731057 L12.6394637,6.79362998 C18.1373418,10.4663445 21.7935603,14.180299 21.7935603,14.180299 C21.7935603,14.180299 18.2740228,17.1955304 12.330753,21.1675293 L12.4085199,17.5831862 C10.0012835,17.5631553 5.26339932,17.4853885 0,17.3970171 C1.43986433,23.3650309 6.43225809,27.9037849 13.5479215,27.9697689 C22.1010927,28.0510706 29.0930362,21.8544695 29.1660898,14.130811 C29.2391435,6.40715249 22.3638502,0.0809400543 13.8118574,0.000816670856"/>
                </g>
            </g>
        </g>
    </g>
</svg>