<svg xmlns="http://www.w3.org/2000/svg" version="1.1" xmlns:xlink="http://www.w3.org/1999/xlink" xmlns:svgjs="http://svgjs.dev/svgjs" width="1440" height="560" preserveAspectRatio="none" viewBox="0 0 1440 560"><g mask="url(&quot;#SvgjsMask1000&quot;)" fill="none"><rect width="1440" height="560" x="0" y="0" fill="#0e2a47"></rect><path d="M673.54 271.09L711.33 271.09L711.33 308.88L673.54 308.88z" stroke="#037b0b"></path><path d="M1244.83 471.21L1249.82 471.21L1249.82 476.2L1244.83 476.2z" stroke="#e73635"></path><path d="M115.92 235.9 a47.74 47.74 0 1 0 95.48 0 a47.74 47.74 0 1 0 -95.48 0z" stroke="#e73635"></path><path d="M1383.35 292.52L1422.21 292.52L1422.21 317.62L1383.35 317.62z" stroke="#e73635"></path><path d="M483.39 327.2L529.95 327.2L529.95 373.76L483.39 373.76z" stroke="#d3b714"></path><path d="M329.35 464L374.46 464L374.46 509.11L329.35 509.11z" stroke="#d3b714"></path><path d="M1179.74 21.61a20.02 20.02 0 1 0 27.1 29.48z" stroke="#d3b714"></path><path d="M1307.63 20.22L1332.45 20.22L1332.45 73.18L1307.63 73.18z" fill="#d3b714"></path><path d="M1261.83 371.45L1278.14 371.45L1278.14 399.99L1261.83 399.99z" fill="#d3b714"></path><path d="M656.53 95.18a29.7 29.7 0 1 0 52.2 28.36z" fill="#d3b714"></path><path d="M766.37 327.54a50.11 50.11 0 1 0-88.5-47.02z" stroke="#037b0b"></path><path d="M423.9 342.67a28.71 28.71 0 1 0-28.2 50.02z" stroke="#d3b714"></path><path d="M513.17 344.66L565.89 344.66L565.89 392.94L513.17 392.94z" fill="#037b0b"></path><path d="M194.61 338.1L230.75 338.1L230.75 374.24L194.61 374.24z" fill="#037b0b"></path><path d="M818.02 171.49L820.32 171.49L820.32 173.79L818.02 173.79z" fill="#e73635"></path><path d="M1277.3 193.52L1287.35 193.52L1287.35 244.67L1277.3 244.67z" fill="#d3b714"></path><path d="M851.39 100.37 a38.56 38.56 0 1 0 77.12 0 a38.56 38.56 0 1 0 -77.12 0z" stroke="#037b0b"></path><path d="M952.11 504.77L992.8 504.77L992.8 524.46L952.11 524.46z" stroke="#e73635"></path><path d="M664.29 482.47L717.76 482.47L717.76 488.22L664.29 488.22z" stroke="#e73635"></path><path d="M1357.07 452.25a13.03 13.03 0 1 0 24.92-7.64z" stroke="#e73635"></path><path d="M720.04 331.53a3.84 3.84 0 1 0 4.21 6.42z" stroke="#d3b714"></path><path d="M1011.93 425.98L1058.5 425.98L1058.5 472.55L1011.93 472.55z" stroke="#037b0b"></path><path d="M321.07 248.37 a28.38 28.38 0 1 0 56.76 0 a28.38 28.38 0 1 0 -56.76 0z" fill="#037b0b"></path><path d="M53.34 21.86L59.31 21.86L59.31 27.83L53.34 27.83z" stroke="#037b0b"></path><path d="M475.57 379.39a52.11 52.11 0 1 0 97.17 37.68z" stroke="#037b0b"></path><path d="M970.72 226.57a17.34 17.34 0 1 0-19.61-28.6z" stroke="#e73635"></path><path d="M951.55 163.15 a46.21 46.21 0 1 0 92.42 0 a46.21 46.21 0 1 0 -92.42 0z" stroke="#037b0b"></path><path d="M904.27 564.42a28.23 28.23 0 1 0-24.53-50.85z" stroke="#037b0b"></path><path d="M1415.82 305.3L1444.3 305.3L1444.3 320.79L1415.82 320.79z" fill="#d3b714"></path><path d="M1352.96 419.24L1363.23 419.24L1363.23 429.51L1352.96 429.51z" fill="#e73635"></path><path d="M642.79 142.85L644.95 142.85L644.95 190.65L642.79 190.65z" stroke="#e73635"></path><path d="M170.59 124.05a6.69 6.69 0 1 0 6.8-11.52z" fill="#e73635"></path><path d="M867.09 63.5L875.6 63.5L875.6 105.63L867.09 105.63z" stroke="#d3b714"></path></g><defs><mask id="SvgjsMask1000"><rect width="1440" height="560" fill="#ffffff"></rect></mask></defs></svg>