<svg xmlns="http://www.w3.org/2000/svg" version="1.1" xmlns:xlink="http://www.w3.org/1999/xlink" xmlns:svgjs="http://svgjs.dev/svgjs" width="1440" height="560" preserveAspectRatio="none" viewBox="0 0 1440 560"><g mask="url(&quot;#SvgjsMask1001&quot;)" fill="none"><path d="M748.71 157.66L748.78 157.66L748.78 210.08L748.71 210.08z" stroke="#037b0b"></path><path d="M341.09 156.52a13.68 13.68 0 1 0 20.64-17.96z" fill="#037b0b"></path><path d="M1395.67 271.36a41.26 41.26 0 1 0-8.4 82.1z" stroke="#e73635"></path><path d="M604.72 320a19.75 19.75 0 1 0 38.86-7.06z" stroke="#d3b714"></path><path d="M329.79 350.63 a35.76 35.76 0 1 0 71.52 0 a35.76 35.76 0 1 0 -71.52 0z" stroke="#e73635"></path><path d="M394.42 385.5L416.27 385.5L416.27 407.35L394.42 407.35z" stroke="#d3b714"></path><path d="M786.95 61.21L836.61 61.21L836.61 87.28L786.95 87.28z" stroke="#e73635"></path><path d="M655.63 416.89a5.19 5.19 0 1 0-8.53-5.92z" stroke="#037b0b"></path><path d="M155.3 327.37L175.65 327.37L175.65 347.72L155.3 347.72z" stroke="#037b0b"></path><path d="M5.46 105.65L39.99 105.65L39.99 142.97L5.46 142.97z" stroke="#e73635"></path><path d="M59.15 284.79 a36.15 36.15 0 1 0 72.3 0 a36.15 36.15 0 1 0 -72.3 0z" fill="#e73635"></path><path d="M1246.49 94.37 a28.37 28.37 0 1 0 56.74 0 a28.37 28.37 0 1 0 -56.74 0z" stroke="#037b0b"></path><path d="M97.19 254.04 a13.51 13.51 0 1 0 27.02 0 a13.51 13.51 0 1 0 -27.02 0z" stroke="#d3b714"></path><path d="M1094.16 132.33L1148.68 132.33L1148.68 153.45L1094.16 153.45z" fill="#d3b714"></path><path d="M848.51 155.76L893.14 155.76L893.14 191.74L848.51 191.74z" fill="#037b0b"></path><path d="M1006.34 81.86 a6.37 6.37 0 1 0 12.74 0 a6.37 6.37 0 1 0 -12.74 0z" fill="#e73635"></path><path d="M56.09 437.19 a35.44 35.44 0 1 0 70.88 0 a35.44 35.44 0 1 0 -70.88 0z" stroke="#e73635"></path><path d="M1322.16 178.65 a36.49 36.49 0 1 0 72.98 0 a36.49 36.49 0 1 0 -72.98 0z" fill="#d3b714"></path><path d="M761.12 436L808.54 436L808.54 483.42L761.12 483.42z" fill="#037b0b"></path><path d="M824.36 554.91a18.48 18.48 0 1 0-27.86-24.29z" fill="#d3b714"></path><path d="M948.08 350.43L1000.27 350.43L1000.27 402.62L948.08 402.62z" fill="#d3b714"></path><path d="M218.94 471.47L271.11 471.47L271.11 473.61L218.94 473.61z" fill="#037b0b"></path><path d="M965.12 23.23L971.45 23.23L971.45 71.95L965.12 71.95z" stroke="#d3b714"></path><path d="M545.44 512.3a28.87 28.87 0 1 0-57.04 8.97z" fill="#037b0b"></path><path d="M351.2 70.44 a16.99 16.99 0 1 0 33.98 0 a16.99 16.99 0 1 0 -33.98 0z" fill="#037b0b"></path><path d="M815.6 459.08L861.67 459.08L861.67 505.15L815.6 505.15z" fill="#d3b714"></path><path d="M998.72 146.48 a25.43 25.43 0 1 0 50.86 0 a25.43 25.43 0 1 0 -50.86 0z" fill="#d3b714"></path><path d="M652.88 241.98L693.77 241.98L693.77 282.87L652.88 282.87z" stroke="#e73635"></path><path d="M56.12 346.57L106.42 346.57L106.42 366L56.12 366z" stroke="#d3b714"></path><path d="M1393.76 118.47a21.13 21.13 0 1 0-37.67 19.15z" stroke="#037b0b"></path><path d="M46.34 222.18a38.63 38.63 0 1 0 77.24 1.3z" fill="#d3b714"></path><path d="M945.6 11.24 a6.61 6.61 0 1 0 13.22 0 a6.61 6.61 0 1 0 -13.22 0z" stroke="#e73635"></path><path d="M165.48 388.74 a30.11 30.11 0 1 0 60.22 0 a30.11 30.11 0 1 0 -60.22 0z" fill="#037b0b"></path></g><defs><mask id="SvgjsMask1001"><rect width="1440" height="560" fill="#ffffff"></rect></mask></defs></svg>