<svg xmlns="http://www.w3.org/2000/svg" version="1.1" xmlns:xlink="http://www.w3.org/1999/xlink" xmlns:svgjs="http://svgjs.dev/svgjs" width="1440" height="560" preserveAspectRatio="none" viewBox="0 0 1440 560"><g mask="url(&quot;#SvgjsMask1000&quot;)" fill="none"><rect width="1440" height="560" x="0" y="0" fill="#0e2a47"></rect><circle r="65.97846522579503" cx="1226.55" cy="229.08" stroke="#037b0b" stroke-width="2.74" stroke-dasharray="3, 2"></circle><path d="M22.97 213.43a5.6 5.6 0 1 0 0.61-11.18 5.6 5.6 0 1 0-0.61 11.18zM23.84 197.46a5.6 5.6 0 1 0 0.6-11.19 5.6 5.6 0 1 0-0.6 11.19zM24.7 181.48a5.6 5.6 0 1 0 0.61-11.18 5.6 5.6 0 1 0-0.61 11.18zM25.57 165.5a5.6 5.6 0 1 0 0.61-11.18 5.6 5.6 0 1 0-0.61 11.18z" stroke="#d3b714" stroke-width="2.65" stroke-dasharray="3, 2"></path><path d="M528.22 307.31 L649.52 217.57L656.2571429273944 329.8271429273944z" fill="#d3b714"></path><circle r="59.76990055328095" cx="920.64" cy="11.24" stroke="#d3b714" stroke-width="1.08" stroke-dasharray="3, 2"></circle><path d="M1221.66 390.93a5.6 5.6 0 1 0-2.84-10.83 5.6 5.6 0 1 0 2.84 10.83zM1217.61 375.45a5.6 5.6 0 1 0-2.84-10.83 5.6 5.6 0 1 0 2.84 10.83zM1213.55 359.98a5.6 5.6 0 1 0-2.84-10.84 5.6 5.6 0 1 0 2.84 10.84zM1209.5 344.5a5.6 5.6 0 1 0-2.84-10.84 5.6 5.6 0 1 0 2.84 10.84zM1245.25 417.83a5.6 5.6 0 1 0-2.84-10.83 5.6 5.6 0 1 0 2.84 10.83zM1241.19 402.35a5.6 5.6 0 1 0-2.83-10.83 5.6 5.6 0 1 0 2.83 10.83zM1237.14 386.88a5.6 5.6 0 1 0-2.84-10.84 5.6 5.6 0 1 0 2.84 10.84zM1233.09 371.4a5.6 5.6 0 1 0-2.84-10.84 5.6 5.6 0 1 0 2.84 10.84z" stroke="#d3b714" stroke-width="2.68" stroke-dasharray="4, 4"></path><path d="M502.79 293.86a5.6 5.6 0 1 0 8.2 7.64 5.6 5.6 0 1 0-8.2-7.64zM514.5 304.77a5.6 5.6 0 1 0 8.19 7.64 5.6 5.6 0 1 0-8.19-7.64zM526.2 315.68a5.6 5.6 0 1 0 8.19 7.64 5.6 5.6 0 1 0-8.19-7.64zM537.9 326.59a5.6 5.6 0 1 0 8.19 7.64 5.6 5.6 0 1 0-8.19-7.64z" stroke="#037b0b" stroke-width="1" stroke-dasharray="2, 2"></path><path d="M798.98 163.72a5.6 5.6 0 1 0 8.67-7.09 5.6 5.6 0 1 0-8.67 7.09zM811.37 153.6a5.6 5.6 0 1 0 8.67-7.09 5.6 5.6 0 1 0-8.67 7.09zM823.76 143.47a5.6 5.6 0 1 0 8.68-7.08 5.6 5.6 0 1 0-8.68 7.08zM836.15 133.35a5.6 5.6 0 1 0 8.68-7.08 5.6 5.6 0 1 0-8.68 7.08zM784.31 196.35a5.6 5.6 0 1 0 8.68-7.08 5.6 5.6 0 1 0-8.68 7.08zM796.71 186.23a5.6 5.6 0 1 0 8.67-7.09 5.6 5.6 0 1 0-8.67 7.09zM809.1 176.11a5.6 5.6 0 1 0 8.67-7.09 5.6 5.6 0 1 0-8.67 7.09zM821.49 165.99a5.6 5.6 0 1 0 8.68-7.09 5.6 5.6 0 1 0-8.68 7.09zM769.65 228.99a5.6 5.6 0 1 0 8.68-7.09 5.6 5.6 0 1 0-8.68 7.09zM782.04 218.86a5.6 5.6 0 1 0 8.68-7.08 5.6 5.6 0 1 0-8.68 7.08zM794.44 208.74a5.6 5.6 0 1 0 8.67-7.08 5.6 5.6 0 1 0-8.67 7.08zM806.83 198.62a5.6 5.6 0 1 0 8.67-7.08 5.6 5.6 0 1 0-8.67 7.08z" fill="#e73635"></path><rect width="324" height="324" clip-path="url(&quot;#SvgjsClipPath1001&quot;)" x="641.66" y="28.45" fill="url(&quot;#SvgjsPattern1002&quot;)" transform="rotate(188.76, 803.66, 190.45)"></rect><path d="M18.43 348.63a5.6 5.6 0 1 0-2.04 11.01 5.6 5.6 0 1 0 2.04-11.01zM15.51 364.36a5.6 5.6 0 1 0-2.04 11.01 5.6 5.6 0 1 0 2.04-11.01zM12.59 380.09a5.6 5.6 0 1 0-2.04 11.02 5.6 5.6 0 1 0 2.04-11.02zM9.68 395.83a5.6 5.6 0 1 0-2.04 11.01 5.6 5.6 0 1 0 2.04-11.01z" stroke="#d3b714" stroke-width="2.85" stroke-dasharray="2, 2"></path><path d="M957.77 25.36a5.6 5.6 0 1 0 3.71 10.57 5.6 5.6 0 1 0-3.71-10.57zM963.06 40.46a5.6 5.6 0 1 0 3.71 10.57 5.6 5.6 0 1 0-3.71-10.57zM968.36 55.56a5.6 5.6 0 1 0 3.71 10.57 5.6 5.6 0 1 0-3.71-10.57zM973.66 70.66a5.6 5.6 0 1 0 3.7 10.57 5.6 5.6 0 1 0-3.7-10.57zM932.08 0.46a5.6 5.6 0 1 0 3.71 10.57 5.6 5.6 0 1 0-3.71-10.57zM937.37 15.56a5.6 5.6 0 1 0 3.71 10.57 5.6 5.6 0 1 0-3.71-10.57zM942.67 30.66a5.6 5.6 0 1 0 3.71 10.57 5.6 5.6 0 1 0-3.71-10.57zM947.97 45.76a5.6 5.6 0 1 0 3.7 10.57 5.6 5.6 0 1 0-3.7-10.57z" fill="#e73635"></path><rect width="120" height="120" clip-path="url(&quot;#SvgjsClipPath1003&quot;)" x="810.28" y="305.92" fill="url(&quot;#SvgjsPattern1004&quot;)" transform="rotate(126.62, 870.28, 365.92)"></rect><path d="M1344.82 231.33L1338.47 242.45 1326.23 238.7 1319.88 249.83 1307.63 246.08 1301.29 257.2 1289.04 253.46M1341.87 223.89L1335.52 235.02 1323.28 231.27 1316.93 242.39 1304.68 238.64 1298.34 249.77 1286.09 246.02M1338.92 216.46L1332.57 227.58 1320.32 223.83 1313.98 234.96 1301.73 231.21 1295.39 242.33 1283.14 238.58" stroke="#037b0b" stroke-width="1.33" stroke-dasharray="3, 2"></path></g><defs><mask id="SvgjsMask1000"><rect width="1440" height="560" fill="#ffffff"></rect></mask><pattern x="0" y="0" width="6" height="6" patternUnits="userSpaceOnUse" id="SvgjsPattern1002"><path d="M0 6L3 0L6 6" stroke="#e73635" fill="none"></path></pattern><clipPath id="SvgjsClipPath1001"><circle r="81" cx="803.66" cy="190.45"></circle></clipPath><pattern x="0" y="0" width="6" height="6" patternUnits="userSpaceOnUse" id="SvgjsPattern1004"><path d="M0 6L3 0L6 6" stroke="#e73635" fill="none"></path></pattern><clipPath id="SvgjsClipPath1003"><circle r="30" cx="870.28" cy="365.92"></circle></clipPath></defs></svg>