<svg xmlns="http://www.w3.org/2000/svg" version="1.1" xmlns:xlink="http://www.w3.org/1999/xlink" xmlns:svgjs="http://svgjs.dev/svgjs" width="1440" height="560" preserveAspectRatio="none" viewBox="0 0 1440 560"><g mask="url(&quot;#SvgjsMask1009&quot;)" fill="none"><rect width="139.8" height="139.8" clip-path="url(&quot;#SvgjsClipPath1010&quot;)" x="589.64" y="382.02" fill="url(&quot;#SvgjsPattern1011&quot;)" transform="rotate(145.09, 659.54, 451.92)"></rect><path d="M798.81 144.97a5.6 5.6 0 1 0-11.17 0.8 5.6 5.6 0 1 0 11.17-0.8zM782.85 146.11a5.6 5.6 0 1 0-11.17 0.79 5.6 5.6 0 1 0 11.17-0.79zM766.89 147.24a5.6 5.6 0 1 0-11.17 0.79 5.6 5.6 0 1 0 11.17-0.79zM750.93 148.37a5.6 5.6 0 1 0-11.17 0.8 5.6 5.6 0 1 0 11.17-0.8z" fill="#d3b714"></path><path d="M1049.61 243L1038.62 236.42 1042.63 224.26 1031.64 217.68 1035.64 205.52 1024.65 198.94 1028.66 186.78" stroke="#e73635" stroke-width="2.14" stroke-dasharray="3, 2"></path><path d="M433.12 529.76a5.6 5.6 0 1 0 11.11 1.4 5.6 5.6 0 1 0-11.11-1.4zM449 531.77a5.6 5.6 0 1 0 11.11 1.4 5.6 5.6 0 1 0-11.11-1.4zM464.87 533.77a5.6 5.6 0 1 0 11.11 1.41 5.6 5.6 0 1 0-11.11-1.41zM480.74 535.78a5.6 5.6 0 1 0 11.12 1.4 5.6 5.6 0 1 0-11.12-1.4z" fill="#d3b714"></path><circle r="46.666666666666664" cx="558.66" cy="507.15" stroke="#037b0b" stroke-width="1"></circle><rect width="276" height="276" clip-path="url(&quot;#SvgjsClipPath1012&quot;)" x="-26.71" y="404.45" fill="url(&quot;#SvgjsPattern1013&quot;)" transform="rotate(141.92, 111.29, 542.45)"></rect><path d="M331.14 331.8a5.6 5.6 0 1 0 1.11 11.14 5.6 5.6 0 1 0-1.11-11.14zM332.73 347.72a5.6 5.6 0 1 0 1.11 11.14 5.6 5.6 0 1 0-1.11-11.14zM334.31 363.64a5.6 5.6 0 1 0 1.11 11.14 5.6 5.6 0 1 0-1.11-11.14zM335.9 379.56a5.6 5.6 0 1 0 1.11 11.15 5.6 5.6 0 1 0-1.11-11.15z" fill="#d3b714"></path><rect width="266.40000000000003" height="266.40000000000003" clip-path="url(&quot;#SvgjsClipPath1014&quot;)" x="8.85" y="-12.24" fill="url(&quot;#SvgjsPattern1015&quot;)" transform="rotate(161.11, 142.05, 120.96)"></rect><path d="M721.31 212.03a5.6 5.6 0 1 0 5.49 9.76 5.6 5.6 0 1 0-5.49-9.76zM729.15 225.98a5.6 5.6 0 1 0 5.5 9.76 5.6 5.6 0 1 0-5.5-9.76zM737 239.92a5.6 5.6 0 1 0 5.49 9.76 5.6 5.6 0 1 0-5.49-9.76zM744.84 253.87a5.6 5.6 0 1 0 5.49 9.76 5.6 5.6 0 1 0-5.49-9.76zM691.67 191.99a5.6 5.6 0 1 0 5.5 9.76 5.6 5.6 0 1 0-5.5-9.76zM699.52 205.93a5.6 5.6 0 1 0 5.49 9.76 5.6 5.6 0 1 0-5.49-9.76zM707.36 219.88a5.6 5.6 0 1 0 5.5 9.76 5.6 5.6 0 1 0-5.5-9.76zM715.21 233.82a5.6 5.6 0 1 0 5.49 9.76 5.6 5.6 0 1 0-5.49-9.76z" stroke="#037b0b" stroke-width="2.35" stroke-dasharray="2, 2"></path><path d="M1394.74 377.89L1388.12 366.92 1397.36 358.06 1390.75 347.1 1399.99 338.23 1393.38 327.27 1402.62 318.41M1402.67 378.94L1396.05 367.97 1405.3 359.11 1398.68 348.15 1407.92 339.28 1401.31 328.32 1410.55 319.46" stroke="#037b0b" stroke-width="1" stroke-dasharray="3, 3"></path><rect width="276" height="276" clip-path="url(&quot;#SvgjsClipPath1016&quot;)" x="56.87" y="29.79" fill="url(&quot;#SvgjsPattern1017&quot;)" transform="rotate(231.2, 194.87, 167.79)"></rect><path d="M318.92 74.41L318.4 61.62 330.76 58.3 330.24 45.5 342.61 42.18 342.09 29.39 354.46 26.07" stroke="#e73635" stroke-width="1" stroke-dasharray="4, 4"></path></g><defs><mask id="SvgjsMask1009"><rect width="1440" height="560" fill="#ffffff"></rect></mask><pattern x="0" y="0" width="13.98" height="13.98" patternUnits="userSpaceOnUse" id="SvgjsPattern1011"><path d="M0 13.98L6.99 0L13.98 13.98" stroke="#e73635" fill="none"></path></pattern><clipPath id="SvgjsClipPath1010"><circle r="34.95" cx="659.54" cy="451.92"></circle></clipPath><pattern x="0" y="0" width="276" height="6" patternUnits="userSpaceOnUse" id="SvgjsPattern1013"><rect width="276" height="3" x="0" y="0" fill="#037b0b"></rect><rect width="276" height="3" x="0" y="3" fill="rgba(0, 0, 0, 0)"></rect></pattern><clipPath id="SvgjsClipPath1012"><circle r="69" cx="111.29" cy="542.45"></circle></clipPath><pattern x="0" y="0" width="7.4" height="7.4" patternUnits="userSpaceOnUse" id="SvgjsPattern1015"><path d="M0 7.4L3.7 0L7.4 7.4" stroke="#d3b714" fill="none"></path></pattern><clipPath id="SvgjsClipPath1014"><circle r="66.60000000000001" cx="142.05" cy="120.96"></circle></clipPath><pattern x="0" y="0" width="276" height="6" patternUnits="userSpaceOnUse" id="SvgjsPattern1017"><rect width="276" height="3" x="0" y="0" fill="#e73635"></rect><rect width="276" height="3" x="0" y="3" fill="rgba(0, 0, 0, 0)"></rect></pattern><clipPath id="SvgjsClipPath1016"><circle r="69" cx="194.87" cy="167.79"></circle></clipPath></defs></svg>