<svg xmlns="http://www.w3.org/2000/svg" version="1.1" xmlns:xlink="http://www.w3.org/1999/xlink" xmlns:svgjs="http://svgjs.dev/svgjs" width="1440" height="560" preserveAspectRatio="none" viewBox="0 0 1440 560"><g clip-path="url(&quot;#SvgjsClipPath1001&quot;)" fill="none"><path d="M659.09 481.66C670.94 481.72 683.3 480.27 691.93 472.15 700.77 463.83 703.65 451.44 704.12 439.31 704.62 426.58 703.86 412.55 694.61 403.79 685.5 395.16 671.64 396.56 659.09 396.66 646.69 396.76 633.69 396.45 624.14 404.36 613.83 412.91 607.16 425.93 607.65 439.31 608.12 452.33 616.54 463.52 626.6 471.8 635.69 479.28 647.32 481.6 659.09 481.66" fill="#ff9500" stroke="none"></path><path d="M641.09 497.66C652.94 497.72 665.3 496.27 673.93 488.15 682.77 479.83 685.65 467.44 686.12 455.31 686.62 442.58 685.86 428.55 676.61 419.79 667.5 411.16 653.64 412.56 641.09 412.66 628.69 412.76 615.69 412.45 606.14 420.36 595.83 428.91 589.16 441.93 589.65 455.31 590.12 468.33 598.54 479.52 608.6 487.8 617.69 495.28 629.32 497.6 641.09 497.66" fill="none" stroke-width="2" stroke="#b36800"></path><path d="M44.11 279.27C55.53 279.59 64.09 270.19 72.42 262.38 81.16 254.18 91.86 246.05 92.3 234.07 92.75 221.86 83.74 211.7 74.6 203.58 66.08 196.02 55.48 191.98 44.11 191.27 31.82 190.5 17.99 190.55 9.55 199.51 1.22 208.34 2.22 222.03 3.75 234.07 5.06 244.39 10.43 253.06 17.36 260.82 24.86 269.22 32.85 278.95 44.11 279.27" fill="#54c076" stroke="none"></path><path d="M58.11 285.27C69.53 285.59 78.09 276.19 86.42 268.38 95.16 260.18 105.86 252.05 106.3 240.07 106.75 227.86 97.74 217.7 88.6 209.58 80.08 202.02 69.48 197.98 58.11 197.27 45.82 196.5 31.99 196.55 23.55 205.51 15.22 214.34 16.22 228.03 17.75 240.07 19.06 250.39 24.43 259.06 31.36 266.82 38.86 275.22 46.85 284.95 58.11 285.27" fill="none" stroke-width="2" stroke="#348d50"></path><path d="M1144.38 532.26C1172.75 533.89 1199.84 518.97 1218.81 497.81 1236.84 477.7 1242.64 450.38 1241.96 423.38 1241.3 397.16 1233.12 371.71 1215.17 352.59 1196.63 332.84 1171.4 321.34 1144.38 319.45 1115.17 317.41 1083.55 321.14 1062.94 341.94 1042.39 362.67 1038.4 394.34 1041.37 423.38 1044.04 449.51 1059.98 470.65 1078.03 489.73 1096.8 509.57 1117.11 530.7 1144.38 532.26" fill="#fd3f3f" stroke="none"></path><path d="M1160.38 523.26C1188.75 524.89 1215.84 509.97 1234.81 488.81 1252.84 468.7 1258.64 441.38 1257.96 414.38 1257.3 388.16 1249.12 362.71 1231.17 343.59 1212.63 323.84 1187.4 312.34 1160.38 310.45 1131.17 308.41 1099.55 312.14 1078.94 332.94 1058.39 353.67 1054.4 385.34 1057.37 414.38 1060.04 440.51 1075.98 461.65 1094.03 480.73 1112.8 500.57 1133.11 521.7 1160.38 523.26" fill="none" stroke-width="2" stroke="#db0202"></path><path d="M949.86 182.86C980.27 182.92 1001.18 155.35 1022.63 133.8 1044.01 112.32 1071.47 91.34 1071.13 61.03 1070.79 30.87 1043.85 9.57 1021.03-10.14 1000.39-27.97 977.13-43.49 949.86-43.72 922.39-43.95 896.51-31.16 877.48-11.35 858.83 8.06 849.27 34.11 849.25 61.03 849.23 87.97 860.22 112.75 877.37 133.52 896.72 156.95 919.47 182.8 949.86 182.86" fill="#2774c6" stroke="none"></path><path d="M938.86 174.86C969.27 174.92 990.18 147.35 1011.63 125.8 1033.01 104.32 1060.47 83.34 1060.13 53.03 1059.79 22.87 1032.85 1.57 1010.03-18.14 989.39-35.97 966.13-51.49 938.86-51.72 911.39-51.95 885.51-39.16 866.48-19.35 847.83 0.06 838.27 26.11 838.25 53.03 838.23 79.97 849.22 104.75 866.37 125.52 885.72 148.95 908.47 174.8 938.86 174.86" fill="none" stroke-width="2" stroke="#1b518b"></path><path d="M953.59 495.7C965.38 495.82 975.63 489.37 984.62 481.74 994.67 473.21 1005.33 463.83 1006.59 450.71 1007.94 436.69 1001.54 422.66 991.22 413.08 981.22 403.8 967.23 401.33 953.59 401.52 940.18 401.7 926.35 404.51 916.98 414.1 907.69 423.61 904.31 437.48 905.54 450.71 906.66 462.84 914.3 472.79 923.19 481.11 931.72 489.09 941.91 495.58 953.59 495.7" fill="#54c076" stroke="none"></path><path d="M934.59 481.7C946.38 481.82 956.63 475.37 965.62 467.74 975.67 459.21 986.33 449.83 987.59 436.71 988.94 422.69 982.54 408.66 972.22 399.08 962.22 389.8 948.23 387.33 934.59 387.52 921.18 387.7 907.35 390.51 897.98 400.1 888.69 409.61 885.31 423.48 886.54 436.71 887.66 448.84 895.3 458.79 904.19 467.11 912.72 475.09 922.91 481.58 934.59 481.7" fill="none" stroke-width="2" stroke="#348d50"></path><path d="M395.96 268.13C420.11 267.8 437.74 248.22 455.42 231.77 474.11 214.38 499.23 197.84 498.92 172.31 498.61 146.88 472.35 131.87 453.98 114.29 436.26 97.34 420.46 74.76 395.96 73.78 370.93 72.77 349.9 90.86 333.08 109.43 317.22 126.94 306.37 148.68 306.71 172.31 307.04 195.62 318.97 216.35 334.86 233.41 351.46 251.23 371.61 268.46 395.96 268.13" fill="#54c076" stroke="none"></path><path d="M402.96 260.13C427.11 259.8 444.74 240.22 462.42 223.77 481.11 206.38 506.23 189.84 505.92 164.31 505.61 138.88 479.35 123.87 460.98 106.29 443.26 89.34 427.46 66.76 402.96 65.78 377.93 64.77 356.9 82.86 340.08 101.43 324.22 118.94 313.37 140.68 313.71 164.31 314.04 187.62 325.97 208.35 341.86 225.41 358.46 243.23 378.61 260.46 402.96 260.13" fill="none" stroke-width="2" stroke="#348d50"></path><path d="M683.1 192.39C696.18 191.87 708.96 187.87 718.29 178.69 727.68 169.44 731.61 156.63 732.76 143.5 734.05 128.78 735.71 111.79 725.07 101.53 714.5 91.33 697.78 95.02 683.1 95.6 669.31 96.15 654.26 95.14 644.34 104.74 634.32 114.43 633.49 129.56 633.61 143.5 633.73 157.29 635.17 171.93 644.98 181.62 654.75 191.27 669.38 192.94 683.1 192.39" fill="#fd3f3f" stroke="none"></path><path d="M673.1 184.39C686.18 183.87 698.96 179.87 708.29 170.69 717.68 161.44 721.61 148.63 722.76 135.5 724.05 120.78 725.71 103.79 715.07 93.53 704.5 83.33 687.78 87.02 673.1 87.6 659.31 88.15 644.26 87.14 634.34 96.74 624.32 106.43 623.49 121.56 623.61 135.5 623.73 149.29 625.17 163.93 634.98 173.62 644.75 183.27 659.38 184.94 673.1 184.39" fill="none" stroke-width="2" stroke="#db0202"></path><path d="M31.73 601.63C43.49 601.36 53.82 595 62.23 586.78 70.76 578.45 77.57 568.18 78.17 556.28 78.8 543.81 75.14 530.45 65.48 522.53 56.36 515.06 43.49 517.39 31.73 518.21 21.16 518.95 10.63 520.26 2.4 526.95-6.79 534.42-14.6 544.45-15.1 556.28-15.62 568.48-8.96 579.71-0.19 588.2 8.43 596.55 19.73 601.9 31.73 601.63" fill="#488fdb" stroke="none"></path><path d="M37.73 607.63C49.49 607.36 59.82 601 68.23 592.78 76.76 584.45 83.57 574.18 84.17 562.28 84.8 549.81 81.14 536.45 71.48 528.53 62.36 521.06 49.49 523.39 37.73 524.21 27.16 524.95 16.63 526.26 8.4 532.95-0.79 540.42-8.6 550.45-9.1 562.28-9.62 574.48-2.96 585.71 5.81 594.2 14.43 602.55 25.73 607.9 37.73 607.63" fill="none" stroke-width="2" stroke="#2164aa"></path></g><defs><clipPath id="SvgjsClipPath1001"><rect width="1440" height="560" x="0" y="0"></rect></clipPath></defs></svg>