<svg width="73" height="72" viewBox="0 0 73 72" fill="none" xmlns="http://www.w3.org/2000/svg">
<path d="M29.4689 38.6477L44.4637 4.06506C46.8593 -1.4598 54.7612 -1.32068 56.9598 4.28506L70.2784 38.2434C73.4643 44.1958 73.9989 51.4885 71.1048 58.1633C66.0639 69.789 52.53 75.1378 40.8759 70.11C29.2219 65.0822 23.8608 51.5818 28.9016 39.956C29.0946 39.5109 29.3001 39.075 29.5174 38.6485L29.4689 38.6477Z" fill="#C4C4C4"/>
<path d="M29.4689 38.6477L44.4637 4.06506C46.8593 -1.4598 54.7612 -1.32068 56.9598 4.28506L70.2784 38.2434C73.4643 44.1958 73.9989 51.4885 71.1048 58.1633C66.0639 69.789 52.53 75.1378 40.8759 70.11C29.2219 65.0822 23.8608 51.5818 28.9016 39.956C29.0946 39.5109 29.3001 39.075 29.5174 38.6485L29.4689 38.6477Z" fill="url(#paint0_linear_2673_132085)"/>
<path d="M1 9H17V63H1V9Z" fill="url(#paint1_linear_2673_132085)"/>
<g filter="url(#filter0_d_2673_132085)">
<path fill-rule="evenodd" clip-rule="evenodd" d="M5.22842 9H1V63H5.22842V51.4036H8.6912C9.87183 51.4036 10.8289 50.4823 10.8289 49.3459C10.8289 48.2095 9.87183 47.2882 8.6912 47.2882H5.22842V38.8092H11.8623C13.0429 38.8092 14 37.888 14 36.7515C14 35.6151 13.0429 34.6939 11.8623 34.6939H5.22842V26.2131H8.6912C9.87183 26.2131 10.8289 25.2919 10.8289 24.1554C10.8289 23.019 9.87183 22.0977 8.6912 22.0977H5.22842V9Z" fill="url(#paint2_linear_2673_132085)"/>
</g>
<defs>
<filter id="filter0_d_2673_132085" x="0.7" y="8.85" width="14.2" height="55.2" filterUnits="userSpaceOnUse" color-interpolation-filters="sRGB">
<feFlood flood-opacity="0" result="BackgroundImageFix"/>
<feColorMatrix in="SourceAlpha" type="matrix" values="0 0 0 0 0 0 0 0 0 0 0 0 0 0 0 0 0 0 127 0" result="hardAlpha"/>
<feOffset dx="0.3" dy="0.45"/>
<feGaussianBlur stdDeviation="0.3"/>
<feComposite in2="hardAlpha" operator="out"/>
<feColorMatrix type="matrix" values="0 0 0 0 0.00720483 0 0 0 0 0.156201 0 0 0 0 0.684462 0 0 0 0.1 0"/>
<feBlend mode="normal" in2="BackgroundImageFix" result="effect1_dropShadow_2673_132085"/>
<feBlend mode="normal" in="SourceGraphic" in2="effect1_dropShadow_2673_132085" result="shape"/>
</filter>
<linearGradient id="paint0_linear_2673_132085" x1="70.0341" y1="68.4241" x2="27.9463" y2="20.1441" gradientUnits="userSpaceOnUse">
<stop stop-color="#1493DF"/>
<stop offset="1" stop-color="#3CCBF4"/>
</linearGradient>
<linearGradient id="paint1_linear_2673_132085" x1="21.2892" y1="47.5758" x2="2.44715" y2="47.5758" gradientUnits="userSpaceOnUse">
<stop stop-color="#3DCCF5"/>
<stop offset="1" stop-color="#28AEEA"/>
</linearGradient>
<linearGradient id="paint2_linear_2673_132085" x1="-4.03288" y1="25.8252" x2="14" y2="25.8252" gradientUnits="userSpaceOnUse">
<stop stop-color="#184F85"/>
<stop offset="1" stop-color="#0F6EB7"/>
</linearGradient>
</defs>
</svg>
